<?xml version="1.0" encoding="utf-8"?>
<!-- Generator: Adobe Illustrator 15.1.0, SVG Export Plug-In . SVG Version: 6.00 Build 0)  -->
<!DOCTYPE svg PUBLIC "-//W3C//DTD SVG 1.1//EN" "http://www.w3.org/Graphics/SVG/1.1/DTD/svg11.dtd">
<svg version="1.1" id="Layer_3" xmlns="http://www.w3.org/2000/svg" xmlns:xlink="http://www.w3.org/1999/xlink" x="0px" y="0px"
	 width="463px" height="463px" viewBox="0 0 463 463" enable-background="new 0 0 463 463" xml:space="preserve">
<path fill="#3F4243" d="M441.166,206.685c-10.02-48.65-34.22-83.11-61-115c23.79,10.88,39.67,29.66,60,44
	c-34.4-59.94-93.51-95.16-177-106h-22c-60.609,7.15-107.391,33.84-143,69c11.71-27.96,32.67-46.66,50-69h-2
	c-51.6,30.85-95,93.32-105,166l-1,42.9c5.12,51.05,32.72,84.67,51,121.101c-17.38-9.281-29.79-23.541-45-35
	c34.32,62.34,95.561,97.78,185,105h4c70-4.33,115.99-32.68,152-71c-10.57,29.76-32.83,47.84-50,71h1
	c52.7-31.631,87.15-81.52,102-151h1C441.166,254.685,447.166,246.685,441.166,206.685z M391.166,282.685
	c-2.07-15.27-1.58-33.09-6-46c-10.41,96.55-87.87,166.379-198,143c16.33-5.01,40.359-2.311,55-9c-101.67-5.15-172.62-86.71-150-196
	c5.47,11.53,2.14,31.86,7,44c10.029-79.84,63.79-139.82,144-148c17.44-1.78,41.84-0.87,53,8c-20.14,0.19-37.39,3.28-54,7
	c84.44,6.38,147.01,59.02,156,140C400.076,242.915,399.476,270.395,391.166,282.685z"/>
<g id="XMLID_2_">
	<g>
		<path fill="#231F20" d="M372.116,423.312c-0.413,0.708-0.836,1.434-1.249,2.142c-0.242-0.141-0.484-0.282-0.708-0.413
			c-2.828,1.753-3.462,4.624-4.474,6.001c-1.651,2.277-0.873,2.569-3.491,2.731c-3.43,0.245-1.577-1.938-2.933-6.479
			c-11.896-15.596-23.245-31.336-33.592-47.325c-2.108-3.846-3.36,1.396-5.404-2.204c-12.676-18.227-25.508-36.383-39.069-54.362
			c-2.004-1.285,1.914-4.114-0.774-5.22c-13.113-9.779-24.938-16.33-40.743-28.559c-20.316,31.455-39.112,68.635-61.792,91.166
			c6.854,22.77,20.199,43.818,26.052,66.836c-3.247,4.494-5.709,11.97-9.452,14.577c-14.711-14.461-30.115-28.724-44.59-43.232
			c-1.816,5.375-5.165,4.927-8.159,5.772c-5.663,9.033-12.728,12.852-19.329,18.375c1.645-8.692,1.321-16.867,6.904-26.596
			c-3.717-2.237-0.38-6.332-0.122-9.63c-19.66-5.104-39.668-11.475-59.58-17.536c3.359-4.845,6.035-12.289,9.866-15.285
			c22.635-5.869,47.062-4.812,69.881-9.925c8.467-30.822,31.562-65.493,48.943-98.661c-18.79-7.905-30.105-14.854-45.622-21.822
			c-1.729,0.265-2.721,3.435-4.925,1.895c-22.184-2.363-44.305-4.597-66.551-7.251c-3.087,0.491,0.291-3.673-3.87-3.207
			c-19.025-1.192-38.315-3.279-57.729-5.947c-4.529,2.289-4.9,1.377-8.214,0.949c-1.138-3.326,6.938-9.077,4.104-11.957
			c0.413-0.708,0.836-1.433,1.249-2.142c4.77-2.541,9.827-3.989,13.919-9.101c42.151-6.034,92.564-13.058,138.625-19.565
			c5.823-0.816,16.502-1.507,18.782-4.343c2.729-3.408,0.822-7.876,2.248-12.067c3.491-10.231,10.284-18.027,16.423-24.861
			c5.681,2.086,15.392,6.826,18.142,11.555c-2.887,7.25-8.004,16.023-12.895,22.105c9.302,1.631,24.97-4.437,33.945-4.108
			c-1,3.699-6.699,3.985-4.171,7.15c8.228-3.232,12.95-14.62,18.676-25.468c24.984-47.272,61.667-114.639,94.97-134.908
			c4.281-2.618,8.75-3.136,12.424-3.284c0.95,0.554,1.917,1.119,2.867,1.672c-0.142,0.242-0.282,0.484-0.413,0.708
			c3.318,2.723,3.473,7.141,3.257,12.432c-1.582,39.375-42.034,104.751-71.112,149.797c-6.081,9.392-14.065,18.714-11.433,27.772
			c3.222-0.921,0.678-6.757,4.584-7.857c0.924,5.122,3.029,11.511,5.169,17.366c1.916,5.168,3.612,12.616,7.272,13.801
			c2.811-7.04,8.216-17.497,13.613-21.709c5.663,2.077,15.392,6.826,18.124,11.545c-4.002,7.734-7.09,18.224-14.255,26.103
			c-3.096,3.402-7.795,3.045-9.408,7.914c-0.853,2.534,4.293,14.146,6.189,18.91c16.688,42.14,36.129,89.797,50.477,129.877
			C371.163,413.081,371.785,418.166,372.116,423.312z"/>
	</g>
	<g>
	</g>
</g>
<g>
	<g>
		<path fill="#5F5754" d="M237.092,343l-0.09-2.406c-0.171-4.553-0.081-9.408,0.006-14.103c0.14-7.521,0.284-15.276-0.664-21.724
			c-5.959-0.642-12.781-0.93-21.774-0.93c-4.65,0-9.465,0.077-14.121,0.151c-4.675,0.074-9.509,0.151-14.198,0.151
			c-3.643,0-6.859-0.046-9.831-0.141l-5.962-0.19l4.316-4.117c5.211-4.971,7.574-9.208,7.023-12.591
			c-0.954-5.86-10.748-10.458-20.219-14.905c-2.375-1.115-4.832-2.269-7.203-3.461c-6.574-3.307-12.638-6.005-17.987-8.386
			c-5.428-2.415-10.115-4.501-14.08-6.649l-4.887-2.647l5.223-1.9c6.529-2.376,10.412-5.419,11.87-9.305
			c2.621-6.985-2.812-16.834-8.066-26.359c-1.071-1.942-2.144-3.888-3.162-5.824l-2.078-3.953l4.457,0.295
			c5.404,0.359,10.037,1.48,14.519,2.564c5.401,1.307,10.503,2.542,16.911,2.542c0.631,0,1.27-0.013,1.911-0.037
			c1.744-3.285,2.857-7.297,4.029-11.519c0.35-1.261,0.7-2.522,1.068-3.765l0.577-1.949l2.025,0.167
			c8.297,0.685,14.482,8.625,20.463,16.303c5.353,6.871,10.887,13.976,16.87,13.976c0.631,0,1.252-0.073,1.897-0.222
			c0.794-0.184,1.294-0.564,1.671-1.271c3.135-5.883-4.481-25.879-10.042-40.479c-4.781-12.552-8.911-23.393-8.559-28.971
			l0.151-2.39l2.394,0.047c5.999,0.119,11.045,2.426,15.497,4.461c3.647,1.668,7.092,3.243,10.345,3.243
			c1.134,0,2.205-0.184,3.276-0.562c6.592-2.325,9.033-13.544,11.394-24.394c1.943-8.933,3.953-18.17,8.49-23.815l2.314-2.878
			l1.812,3.217c4.237,7.519,7.474,16.095,10.604,24.389c3.165,8.386,6.432,17.043,10.688,24.41c0.328,0.01,0.653,0.015,0.974,0.015
			c6.691,0,11.178-2.203,15.928-4.534c3.631-1.783,7.385-3.625,12.174-4.511l3.226-0.596l-0.281,3.269
			c-0.813,9.476-4.368,20.646-8.483,33.579l-0.625,1.964c-0.626,1.964-1.575,4.434-2.674,7.294
			c-3.198,8.323-8.551,22.252-5.996,27.115c0.396,0.754,0.973,1.187,1.873,1.403c0.524,0.126,1.054,0.19,1.572,0.19
			c5.399,0,10.734-7.056,15.893-13.88c5.832-7.714,11.863-15.691,19.734-16.37l1.815-0.157l0.705,1.68
			c1.166,2.781,2.024,5.828,2.854,8.775c0.974,3.458,1.901,6.753,3.254,9.533c7.345-0.852,13.513-2.804,20.018-4.862
			c4.458-1.411,9.068-2.87,14.051-3.924l5.759-1.219l-3.122,4.991c-1.028,1.644-2.139,3.342-3.271,5.074
			c-6.006,9.188-12.813,19.604-10.203,26.693c1.357,3.688,5.415,6.551,12.061,8.508l4.688,1.381l-3.863,2.993
			c-9.146,7.085-19.833,12.742-30.17,18.213c-8.879,4.699-18.05,9.553-26.067,15.243c-0.603,4.3,0.844,6.297,2.643,8.783
			c1.395,1.927,2.976,4.111,3.528,7.368L314.46,304h-63.249c-1.827,5.518-1.523,13.627-1.229,21.492
			c0.192,5.145,0.392,10.465,0.009,15.209L249.807,343H237.092z"/>
		<path fill="#FFFFFF" d="M242.5,109.5c8.65,15.35,12.97,35.03,22,50c0.844,0.059,1.658,0.087,2.443,0.087
			c12.546,0,17.969-7.129,28.557-9.087c-0.83,9.67-4.71,21.5-9,35c-3.19,10.02-16.13,36.32-5,39c0.732,0.176,1.451,0.26,2.158,0.26
			c13.177,0,22.204-29.083,35.842-30.26c2.66,6.34,3.68,14.32,7,20c13.75-1.25,23.62-6.38,36-9c-9.76,15.6-26.89,36.08,0,44
			c-17.09,13.24-39.41,21.26-57,34c-1.93,9.93,4.84,11.16,6,18h-62c-4.23,9.44-0.98,26.35-2,39h-8c-0.47-12.53,1.06-27.06-1-38
			c-7.443-0.92-15.567-1.163-23.93-1.163c-9.339,0-18.98,0.302-28.319,0.302c-3.298,0-6.555-0.038-9.751-0.14
			c20.18-19.25-2.65-25.77-21-35c-13.2-6.64-24.21-10.78-32-15c25.04-9.11,11.22-27.46,2-45c11.479,0.762,19.356,5.111,31.595,5.111
			c1.098,0,2.23-0.035,3.405-0.111c2.91-4.76,4.25-11.09,6-17c14.569,1.202,23.288,30.287,37.539,30.287
			c0.803,0,1.621-0.092,2.461-0.287c15.5-3.59-15.85-59.51-15-73c10.402,0.206,17.866,7.705,25.891,7.705
			c1.349,0,2.712-0.211,4.109-0.705C235.31,153.63,232.75,121.63,242.5,109.5 M243.23,100.611l-4.627,5.757
			c-4.907,6.104-6.98,15.634-8.985,24.85c-2.112,9.706-4.505,20.707-9.781,22.567c-0.801,0.283-1.601,0.42-2.446,0.42
			c-2.708,0-5.765-1.398-9.305-3.017c-4.673-2.137-9.97-4.559-16.487-4.688l-4.788-0.095l-0.301,4.779
			c-0.367,5.823,3.074,15.2,8.718,30.018c3.344,8.78,6.802,17.858,8.847,25.493c2.631,9.823,1.549,12.51,1.323,12.927
			c-0.008,0.002-0.016,0.004-0.025,0.006c-0.458,0.106-0.895,0.158-1.334,0.158c-4.761,0-9.914-6.615-14.897-13.012
			c-6.313-8.104-12.84-16.483-22.23-17.258l-4.051-0.334l-1.154,3.898c-0.376,1.27-0.734,2.559-1.08,3.806
			c-0.979,3.528-1.917,6.905-3.195,9.723c-0.112,0.001-0.224,0.001-0.335,0.001c-6.11,0-11.071-1.201-16.323-2.471
			c-4.583-1.109-9.323-2.256-14.941-2.629l-8.913-0.591l4.156,7.907c1.033,1.965,2.127,3.949,3.186,5.868
			c4.981,9.029,10.131,18.366,7.915,24.273c-1.169,3.117-4.663,5.752-10.384,7.833l-10.446,3.8l9.773,5.295
			c4.05,2.194,8.779,4.298,14.254,6.735c5.325,2.37,11.359,5.055,17.88,8.335c2.401,1.208,4.873,2.368,7.264,3.491
			c8.471,3.977,18.071,8.485,18.814,13.044c0.398,2.45-1.832,6.136-6.282,10.38l-8.632,8.235l11.924,0.381
			c2.998,0.096,6.24,0.142,9.911,0.142c4.709,0,9.554-0.077,14.238-0.152c4.646-0.074,9.451-0.15,14.081-0.15
			c7.928,0,14.139,0.226,19.547,0.721c0.643,5.854,0.515,12.714,0.392,19.387c-0.087,4.729-0.178,9.619-0.005,14.243l0.181,4.812
			h4.816h8h4.613l0.371-4.598c0.394-4.891,0.192-10.286-0.003-15.503c-0.256-6.838-0.52-13.867,0.628-18.898H311.5h5.92l-0.99-5.836
			c-0.65-3.832-2.49-6.374-3.968-8.416c-1.491-2.059-2.432-3.358-2.298-5.926c7.668-5.321,16.402-9.943,24.867-14.424
			c10.43-5.521,21.215-11.229,30.531-18.446l7.728-5.987l-9.377-2.762c-5.846-1.722-9.353-4.068-10.422-6.973
			c-2.176-5.911,4.548-16.197,9.95-24.462c1.157-1.771,2.251-3.443,3.298-5.116l6.244-9.981l-11.519,2.438
			c-5.103,1.08-9.771,2.558-14.287,3.986c-5.833,1.846-11.39,3.605-17.733,4.525c-0.901-2.244-1.625-4.815-2.378-7.489
			c-0.851-3.02-1.729-6.143-2.956-9.065l-1.41-3.36l-3.63,0.313c-8.979,0.775-15.352,9.203-21.514,17.354
			c-4.567,6.041-9.744,12.888-13.899,12.888c-0.326,0-0.649-0.04-0.988-0.121c-0.16-0.038-0.218-0.074-0.219-0.075l0,0
			c0.007,0-1.167-1.632,0.533-8.681c1.277-5.293,3.651-11.471,5.558-16.435c1.113-2.896,2.075-5.398,2.722-7.431l0.625-1.966
			c4.161-13.076,7.755-24.369,8.592-34.124l0.562-6.537l-6.452,1.193c-5.127,0.948-9.039,2.868-12.821,4.725
			c-4.55,2.234-8.497,4.171-14.336,4.274c-3.795-6.86-6.727-14.628-9.812-22.804c-3.164-8.382-6.435-17.049-10.765-24.733
			L243.23,100.611L243.23,100.611z"/>
	</g>
</g>
</svg>
